<?xml version="1.0" standalone="no"?><!DOCTYPE svg PUBLIC "-//W3C//DTD SVG 1.1//EN" "http://www.w3.org/Graphics/SVG/1.1/DTD/svg11.dtd"><svg t="1658396763308" class="icon" viewBox="0 0 1024 1024" version="1.1" xmlns="http://www.w3.org/2000/svg" p-id="1822" xmlns:xlink="http://www.w3.org/1999/xlink" width="200" height="200"><defs><style type="text/css"></style></defs><path d="M836.54 429.526667l-498.833333-288-91.946667-53.086667c-10-5.78-18.553333-2.1-21.76-0.246667A21.333333 21.333333 0 0 0 213.333333 106.666667v682.666666a21.333333 21.333333 0 0 0 36.113334 15.386667l154.666666-148.586667 130.38 225.826667A53.333333 53.333333 0 0 0 607.333333 901.486667l129.333334-74.666667a53.333333 53.333333 0 0 0 19.526666-72.86L625.8 528.133333l206-59.64a21.333333 21.333333 0 0 0 4.733333-38.966666z" fill="#5C5C66" p-id="1823"></path></svg>